<?xml version="1.0" ?><svg enable-background="new -111.421 49.819 286.38 475.634" id="Layer_1" version="1.1" viewBox="-111.421 49.819 286.38 475.634" xml:space="preserve" xmlns="http://www.w3.org/2000/svg" xmlns:xlink="http://www.w3.org/1999/xlink"><g id="Layer_1_1_"/><path d="M165.977,497.264c-0.651-1.06-1.445-2.088-2.378-3.071c-1.447-1.75-2.864-3.512-4.275-5.265  c-2.068-2.569-4.207-5.226-6.405-7.809c-2.167-2.547-4.374-5.03-6.508-7.432c-1.632-1.837-3.258-3.666-4.854-5.51  c-2.02-2.336-4.08-4.596-6.072-6.781c-1.879-2.061-3.653-4.007-5.386-5.999c-1.852-2.131-3.737-4.227-5.561-6.253  c-2.017-2.24-3.922-4.356-5.799-6.533c-1.878-2.176-3.678-4.429-5.584-6.815c-1.67-2.089-3.396-4.25-5.2-6.382  c-1.556-1.838-3.141-3.652-4.729-5.47c-2.214-2.535-4.306-4.93-6.342-7.412c-3.459-4.215-7.025-8.655-10.6-13.199  c-3.013-3.828-6.269-8.092-10.248-13.421l-2.225-2.966c-2.583-3.44-5.255-6.998-7.777-10.577c-0.477-0.677-1.029-1.283-1.642-1.813  c-0.133-0.158-0.268-0.31-0.403-0.455c-0.526-1.211-1.377-2.809-2.86-4.292c-0.542-0.542-1.14-1.015-1.78-1.414  c-1.159-1.998-2.567-4.05-4.376-5.911c-3.43-3.878-6.531-8.012-9.532-12.012l-0.444-0.593c-1.434-1.91-2.803-3.878-4.251-5.961  c-0.151-0.218-0.304-0.436-0.456-0.655c1.16-0.896,2.323-1.785,3.467-2.658c2.448-1.871,4.98-3.807,7.449-5.785  c3.487-2.795,6.929-5.586,10.347-8.357l3.502-2.839c1.801-1.458,3.601-2.903,5.395-4.345c2.842-2.283,5.67-4.555,8.467-6.849  c2.808-2.303,5.595-4.649,8.29-6.918c1.794-1.511,3.585-3.019,5.38-4.512c2.608-2.169,5.163-4.393,7.633-6.543  c1.955-1.701,3.91-3.402,5.89-5.076c1.972-1.665,4.073-3.262,6.298-4.953c2.526-1.92,5.139-3.905,7.703-6.107  c2.753-2.366,5.502-4.799,8.16-7.153c1.74-1.54,3.483-3.084,5.24-4.62c1.708-1.492,3.427-2.975,5.15-4.462  c2.396-2.068,4.864-4.199,7.326-6.373c2.961-1.555,4.913-2.897,6.399-4.383c0.261-0.261,0.507-0.536,0.737-0.824  c2.946-3.683,6.343-7.049,10.276-10.946c0.597-0.591,1.199-1.188,1.808-1.795c1.049-0.741,1.866-1.521,2.48-2.146  c2.664-0.756,4.94-2.599,6.216-5.149c1.694-3.388,1.328-7.442-0.944-10.472c-0.719-0.958-1.417-2.037-2.156-3.178  c-2.016-3.112-4.524-6.985-8.716-10.128c-1.73-1.298-3.836-2-6-2c-6.947,0-13.755,0.167-20.076,0.346l-0.414,0.012  c-6.46,0.185-12.56,0.357-18.739,0.214c-1.555-0.037-3.114-0.053-4.678-0.068c-4.803-0.049-9.338-0.095-13.73-0.753  c-0.49-0.073-0.986-0.11-1.482-0.11c-5.024,0-8.485,2.085-10.553,3.332c-0.3,0.181-0.672,0.405-0.823,0.481  c-0.962,0.481-1.84,1.113-2.6,1.873c-0.473,0.473-2.006,2.096-3.257,4.423c-3.946,2.725-7.406,5.339-10.517,7.944  c-1.755,1.47-3.376,2.951-4.944,4.384c-2.126,1.942-4.133,3.776-6.186,5.316c-0.674,0.506-1.281,1.095-1.808,1.752  c-1.306,1.632-3.313,3.238-5.438,4.938c-2.5,2-5.303,4.242-7.815,7.162c-2.156,1.761-4.262,3.537-6.305,5.26  c-2.813,2.373-5.47,4.615-8.186,6.763l-5.941,4.695c-3.234,2.554-6.46,5.103-9.688,7.661c-2.206,1.749-4.566,3.413-7.064,5.174  c-2.978,2.1-6.057,4.27-9.083,6.741c-5.25,4.281-10.458,8.635-15.481,12.939c-0.194,0.166-0.382,0.341-0.563,0.521  c-2.751,2.751-5.555,5.345-8.458,7.971c0.231-1.79,0.463-3.622,0.696-5.503c0.434-3.486,0.697-6.932,0.951-10.264  c0.2-2.617,0.389-5.09,0.652-7.55c0.264-2.461,0.687-4.982,1.135-7.651c0.542-3.227,1.102-6.564,1.419-10.061  c0.314-3.455,0.414-6.831,0.511-10.097c0.08-2.704,0.156-5.258,0.345-7.766c0.188-2.503,0.46-5.01,0.748-7.664  c0.355-3.277,0.722-6.666,0.931-10.126c0.298-4.945,0.526-9.942,0.747-14.775l0.14-3.062c0.159-3.442,0.17-6.839,0.181-10.124  c0.008-2.676,0.016-5.205,0.099-7.73c0.083-2.525,0.306-5.105,0.543-7.837c0.279-3.215,0.567-6.541,0.635-9.983  c0.069-3.481-0.137-6.816-0.336-10.041c-0.169-2.738-0.329-5.324-0.311-7.809c0.019-2.479,0.229-5.066,0.451-7.804  c0.261-3.216,0.53-6.542,0.516-10.025c-0.014-3.412-0.147-6.79-0.275-10.057c-0.106-2.685-0.206-5.221-0.244-7.77  c-0.037-2.432-0.046-4.865-0.056-7.297c-0.013-3.435-0.027-6.986-0.119-10.53c-0.088-3.4-0.383-6.686-0.668-9.864  c-0.248-2.761-0.481-5.369-0.573-7.921c-0.093-2.603-0.089-5.238-0.084-8.027c0.006-3.198,0.012-6.504-0.14-9.848  c-0.113-2.493-1.154-4.854-2.918-6.618c-4.267-4.267-11.354-11.352-22.275-9.833c-4.541,0.265-10.394,0.58-16.206,0.731  c-3.11,0.08-6.229,0.038-9.528-0.007c-2.371-0.033-4.824-0.065-7.283-0.05c-3.054,0.021-6.206-0.017-9.254-0.053  c-2.262-0.026-4.525-0.053-6.787-0.059c-2.186-0.143-4.402,0.34-6.254,1.484c-1.978,1.222-3.409,3.048-4.156,5.125  c-0.138,0.127-0.264,0.235-0.369,0.313c-2.815,1.038-5.021,3.289-5.999,6.137c-1.012,2.948-0.591,6.199,1.138,8.792  c0.211,0.317,0.76,1.754,0.76,4.557c0,0.442,0.029,0.883,0.088,1.322c0.813,6.097,1.653,12.401,2.26,18.555  c0.39,3.954,0.61,7.896,0.844,12.069c0.124,2.209,0.248,4.417,0.396,6.619c0.401,5.925,0.809,12.294,1.07,18.731  c0.079,1.925,0.167,3.848,0.255,5.77c0.206,4.49,0.401,8.731,0.478,13.021c0.07,3.847,0.03,7.825-0.009,11.672  c-0.024,2.394-0.048,4.788-0.048,7.18c0,2.785,0.045,5.574,0.09,8.27c0.061,3.67,0.118,7.137,0.069,10.628  c-0.047,3.389-0.184,6.896-0.317,10.288c-0.11,2.799-0.223,5.692-0.29,8.58l-0.209,5.709c-0.152,4.207-0.305,8.414-0.483,12.62  c-0.116,2.741-0.217,5.483-0.317,8.226c-0.125,3.4-0.249,6.801-0.405,10.201c-0.144,3.136-0.213,6.269-0.28,9.298  c-0.07,3.16-0.136,6.146-0.279,9.152c-0.139,2.937-0.362,5.854-0.598,8.944c-0.236,3.085-0.479,6.276-0.632,9.492  c-0.154,3.254-0.215,6.493-0.274,9.626c-0.057,3.061-0.111,5.952-0.246,8.858c-0.154,3.357-0.272,6.716-0.389,10.074  c-0.098,2.806-0.196,5.61-0.316,8.416c-0.119,2.77-0.368,5.566-0.632,8.528c-0.287,3.219-0.583,6.547-0.713,9.954  c-0.13,3.425-0.169,6.843-0.207,10.147c-0.031,2.767-0.064,5.628-0.151,8.391c-0.12,3.797-0.188,7.625-0.253,11.327  c-0.043,2.406-0.085,4.813-0.142,7.22c-0.063,2.688-0.186,5.354-0.315,8.175c-0.155,3.377-0.315,6.868-0.364,10.385  c-0.06,4.307-0.058,8.65-0.057,12.851c0,1.912,0.001,3.823-0.004,5.734c-0.01,3.946,0.06,7.905,0.128,11.733  c0.041,2.29,0.082,4.579,0.105,6.869c0.041,3.883,0.176,7.762,0.307,11.514c0.083,2.36,0.166,4.721,0.224,7.084  c0.004,0.173,0.013,0.345,0.026,0.518c0.292,3.801,0.364,7.523,0.439,11.464c0.045,2.361,0.091,4.804,0.19,7.25  c0.304,7.536,1.112,14.005,2.542,20.316c0.155,1.212,0.041,3.009-0.08,4.904c-0.235,3.696-0.514,8.09,0.76,12.689  c-0.017,0.238-0.026,0.477-0.026,0.716l0,0.261c-0.035,9.044,4.982,12.783,9.196,14.328c0.927,0.34,1.899,0.54,2.886,0.595  c4.334,0.241,8.61,0.177,12.745,0.119c2.081-0.031,4.16-0.065,6.237-0.051c1.705,0.009,3.413,0.043,5.126,0.076  c4.499,0.09,9.15,0.183,13.987-0.149c6.359-0.433,12.699-1.435,18.83-2.403l0.269-0.042c0.964-0.152,1.901-0.445,2.78-0.869  c4.3-2.071,7.761-7.221,5.576-13.788c-0.274-1.912-0.958-3.52-1.793-4.849c0.067-1.136,0.008-2.094-0.034-2.777  c-0.011-0.179-0.027-0.358-0.028-0.539c0-0.237-0.008-0.476-0.025-0.712c-0.124-1.73-0.254-3.46-0.385-5.189  c-0.284-3.759-0.578-7.646-0.783-11.416c-0.292-5.377-0.53-10.953-0.706-16.575c-0.101-3.193-0.048-6.412,0.007-9.819  c0.037-2.237,0.072-4.474,0.066-6.709c-0.005-1.661-0.021-3.321-0.038-4.981c-0.04-3.973-0.077-7.726,0.042-11.486  c0.107-3.419,0.403-6.865,0.716-10.514c0.167-1.952,0.335-3.905,0.474-5.861c0.017-0.236,0.025-0.474,0.025-0.711  c0-0.406-0.01-0.875-0.023-1.386c0.775-1.198,1.301-2.574,1.503-4.053c0.765-1.014,1.512-2.018,2.246-3.004  c1.961-2.636,3.814-5.125,5.745-7.472c1.298-1.578,2.522-3.05,3.73-4.417c1.677,2.091,3.29,4.116,4.884,6.187l2.572,3.341  c2.658,3.449,5.303,6.883,7.915,10.324c1.666,2.194,3.341,4.373,5.012,6.546c1.838,2.392,3.672,4.776,5.483,7.169  c1.906,2.52,3.854,5.004,5.739,7.406c1.64,2.091,3.277,4.178,4.882,6.282c2.25,2.952,4.551,5.885,6.776,8.721  c1.305,1.663,2.608,3.324,3.902,4.99c1.505,1.938,2.952,3.93,4.483,6.037c1.89,2.601,3.845,5.29,5.958,7.93  c2.223,2.775,4.529,5.419,6.76,7.975c1.6,1.833,3.11,3.564,4.59,5.338c2.44,2.925,4.972,5.729,7.419,8.439  c1.404,1.556,2.811,3.113,4.196,4.69c1.405,1.601,2.772,3.225,4.221,4.943c2.313,2.745,4.703,5.584,7.288,8.354  c4.099,4.392,8.259,8.552,12.281,12.575c1.765,1.765,4.125,2.806,6.618,2.918c1.563,0.071,3.122,0.162,4.679,0.253  c3.997,0.231,8.135,0.472,12.404,0.4c3.051-0.053,6.06-0.212,8.97-0.366c2.63-0.139,5.114-0.271,7.596-0.327  c1.587-0.035,3.175-0.086,4.763-0.137c3.906-0.124,7.598-0.242,11.242-0.138c3.743,0.107,7.632,0.67,11.749,1.267  c0.729,0.105,1.458,0.211,2.188,0.314c0.685,0.164,1.397,0.27,2.133,0.31c0.202,0.012,0.403,0.017,0.603,0.017  c3.817,0,7.13-2.01,8.851-5.122c0.454-0.396,0.859-0.804,1.222-1.223c3.486-1.563,5.915-5.063,5.915-9.131  C174.917,504.206,171.431,499.542,165.977,497.264z M142.831,503.554c-4.248-0.123-8.422,0.011-12.454,0.141  c-1.525,0.048-3.05,0.097-4.576,0.132c-2.785,0.063-5.538,0.209-8.201,0.35c-2.859,0.151-5.561,0.295-8.252,0.341  c-3.53,0.058-7.108-0.148-10.903-0.37c-0.342-0.02-0.683-0.039-1.024-0.059c-3.04-3.052-6.118-6.179-9.093-9.366  c-2.238-2.397-4.363-4.921-6.612-7.592c-1.45-1.722-2.949-3.501-4.491-5.258c-1.446-1.646-2.912-3.271-4.378-4.895  c-2.426-2.687-4.718-5.225-6.908-7.851c-1.621-1.943-3.276-3.84-4.878-5.675c-2.189-2.509-4.258-4.879-6.216-7.324  c-1.821-2.275-3.556-4.662-5.392-7.188c-1.556-2.142-3.165-4.356-4.867-6.547c-1.313-1.692-2.637-3.379-3.961-5.067  c-2.184-2.782-4.44-5.659-6.606-8.502c-1.661-2.178-3.354-4.337-5.051-6.5c-1.832-2.335-3.725-4.75-5.526-7.13  c-1.842-2.435-3.707-4.859-5.576-7.291c-1.646-2.142-3.297-4.288-4.937-6.449c-2.64-3.478-5.314-6.949-8.001-10.438l-2.564-3.33  c-2.126-2.763-4.315-5.486-6.431-8.121c-1.453-1.808-2.91-3.621-4.359-5.462c-0.25-0.317-0.519-0.62-0.806-0.905  c-3.236-3.218-6.572-3.557-8.772-3.505l-0.192,0.002c-2.223,0-4.383,0.741-6.139,2.105c-5.177,4.025-9.204,8.732-13.212,13.605  c-2.239,2.723-4.326,5.526-6.343,8.237c-1.291,1.734-2.625,3.527-3.962,5.247c-0.101,0.13-0.199,0.263-0.293,0.397  c-0.682,0.715-1.257,1.531-1.705,2.427c-1.935,3.87-1.817,8.352-1.74,11.316c0.006,0.241,0.013,0.47,0.017,0.68  c-0.126,1.728-0.275,3.453-0.423,5.178c-0.322,3.753-0.655,7.634-0.78,11.596c-0.131,4.175-0.09,8.312-0.05,12.313  c0.016,1.613,0.032,3.227,0.037,4.84c0.006,2.109-0.029,4.218-0.063,6.327c-0.057,3.492-0.115,7.104,0,10.772  c0.181,5.773,0.425,11.503,0.726,17.032c0.217,3.982,0.519,7.976,0.81,11.838c0.122,1.605,0.243,3.212,0.358,4.819  c0.002,0.125,0.006,0.251,0.011,0.376c-0.73,1.233-1.172,2.589-1.326,3.972c-1.906,0.228-3.788,0.415-5.651,0.542  c-3.959,0.27-7.977,0.191-12.229,0.106c-1.812-0.035-3.62-0.071-5.42-0.08c-2.205-0.012-4.417,0.02-6.63,0.053  c-1.581,0.022-3.126,0.045-4.645,0.052c-0.114-0.294-0.241-0.583-0.382-0.865c-0.624-1.247-0.45-3.982-0.282-6.629  c0.185-2.91,0.394-6.208-0.185-9.68c-0.034-0.203-0.074-0.404-0.12-0.604c-1.198-5.19-1.875-10.595-2.134-17.01  c-0.09-2.234-0.133-4.465-0.178-6.826c-0.076-3.97-0.154-8.072-0.474-12.355c-0.06-2.344-0.142-4.686-0.224-7.026  c-0.127-3.632-0.258-7.387-0.296-11.022c-0.024-2.34-0.066-4.679-0.107-7.018c-0.066-3.729-0.135-7.584-0.125-11.325  c0.005-1.931,0.004-3.861,0.004-5.793c-0.001-4.131-0.002-8.402,0.055-12.569c0.044-3.195,0.19-6.376,0.345-9.744  c0.128-2.806,0.262-5.708,0.33-8.62c0.058-2.445,0.101-4.891,0.145-7.336c0.064-3.634,0.131-7.393,0.247-11.053  c0.093-2.963,0.127-5.927,0.159-8.793c0.038-3.32,0.073-6.456,0.193-9.614c0.11-2.899,0.372-5.833,0.648-8.938  c0.272-3.057,0.554-6.218,0.692-9.447c0.123-2.857,0.223-5.716,0.323-8.574c0.115-3.285,0.229-6.57,0.38-9.852  c0.147-3.178,0.206-6.344,0.264-9.404c0.059-3.13,0.114-6.085,0.255-9.051c0.139-2.929,0.361-5.839,0.597-8.92  c0.236-3.094,0.48-6.294,0.633-9.516c0.155-3.26,0.227-6.513,0.297-9.659c0.067-3.047,0.131-5.925,0.264-8.825  c0.159-3.461,0.286-6.923,0.413-10.384c0.099-2.704,0.198-5.407,0.313-8.111c0.18-4.248,0.334-8.495,0.488-12.743l0.212-5.765  c0.001-0.049,0.003-0.099,0.004-0.148c0.062-2.746,0.173-5.579,0.28-8.318c0.138-3.516,0.28-7.153,0.331-10.794  c0.053-3.794-0.01-7.576-0.07-11.234c-0.043-2.615-0.088-5.318-0.087-7.938c0-2.326,0.024-4.653,0.047-6.981  c0.04-3.985,0.082-8.107,0.007-12.235c-0.083-4.568-0.293-9.148-0.497-13.578c-0.086-1.888-0.173-3.777-0.25-5.666  c-0.271-6.672-0.688-13.205-1.1-19.269c-0.144-2.125-0.263-4.254-0.382-6.386c-0.235-4.197-0.478-8.538-0.91-12.913  c-0.62-6.283-1.448-12.549-2.257-18.623c-0.034-1.996-0.21-3.886-0.529-5.665c0.655,0.007,1.311,0.015,1.965,0.023  c3.138,0.037,6.384,0.075,9.621,0.054c2.262-0.017,4.502,0.016,6.878,0.048c3.352,0.046,6.816,0.094,10.324,0.002  c6.297-0.165,12.561-0.506,17.313-0.786c0.354-0.021,0.707-0.061,1.057-0.119c0.582-0.095,1.575,0.585,2.634,1.488  c0.019,1.613,0.016,3.258,0.013,4.955c-0.005,2.853-0.011,5.802,0.096,8.781c0.111,3.087,0.38,6.088,0.641,8.99  c0.269,2.999,0.523,5.832,0.595,8.596c0.086,3.323,0.099,6.763,0.112,10.089c0.01,2.507,0.02,5.016,0.058,7.524  c0.042,2.79,0.152,5.566,0.257,8.251c0.127,3.236,0.248,6.292,0.26,9.352c0.011,2.633-0.213,5.399-0.451,8.328  c-0.242,2.978-0.491,6.057-0.515,9.271c-0.024,3.177,0.165,6.234,0.348,9.191c0.183,2.956,0.355,5.747,0.302,8.412  c-0.055,2.775-0.303,5.63-0.564,8.652c-0.25,2.875-0.507,5.849-0.607,8.912c-0.092,2.821-0.101,5.617-0.109,8.321  c-0.01,3.214-0.02,6.25-0.159,9.262l-0.141,3.075c-0.217,4.76-0.441,9.682-0.731,14.482c-0.18,2.986-0.505,5.993-0.851,9.176  c-0.292,2.698-0.594,5.487-0.807,8.316c-0.223,2.961-0.31,5.866-0.393,8.675c-0.092,3.103-0.179,6.033-0.438,8.88  c-0.25,2.743-0.724,5.569-1.226,8.561c-0.477,2.839-0.969,5.775-1.297,8.83c-0.296,2.765-0.505,5.507-0.708,8.159  c-0.247,3.241-0.481,6.303-0.856,9.318c-0.777,6.25-1.531,11.938-2.305,17.388c-0.779,5.474-1.622,10.706-2.514,16.246l-0.136,0.849  c-0.719,4.464,1.646,8.854,5.771,10.71c4.123,1.854,8.978,0.713,11.842-2.788c3.585-4.382,7.715-8.62,13.392-13.743  c0.991-0.895,1.985-1.786,2.98-2.678c4.089-3.666,8.315-7.454,12.445-11.565c4.811-4.119,9.796-8.283,14.823-12.384  c2.483-2.026,5.146-3.903,7.964-5.891c2.615-1.843,5.319-3.749,7.965-5.847c3.219-2.552,6.436-5.093,9.66-7.64l5.951-4.703  c2.965-2.344,5.868-4.794,8.677-7.164c2.209-1.864,4.493-3.791,6.762-5.627c0.559-0.453,1.067-0.964,1.517-1.525  c1.306-1.632,3.313-3.238,5.438-4.938c2.466-1.973,5.227-4.181,7.713-7.044c2.433-1.901,4.605-3.888,6.716-5.816  c1.477-1.349,2.871-2.624,4.295-3.816c3.23-2.706,6.974-5.47,11.443-8.449c1.767-1.177,3.085-2.865,3.813-4.797  c5.094,0.626,9.949,0.676,14.661,0.724c1.476,0.015,2.947,0.029,4.415,0.064c6.696,0.154,13.345-0.034,19.774-0.217l0.413-0.012  c4.278-0.122,8.779-0.237,13.367-0.297c-0.209,0.208-0.417,0.414-0.624,0.619c-3.924,3.888-7.644,7.573-11.111,11.79  c-0.365,0.232-1.084,0.654-2.381,1.303c-0.785,0.393-1.516,0.887-2.171,1.47c-2.67,2.373-5.413,4.74-8.066,7.03  c-1.755,1.514-3.503,3.023-5.243,4.544c-1.791,1.565-3.566,3.137-5.337,4.705c-2.604,2.305-5.296,4.688-7.936,6.957  c-2.11,1.813-4.375,3.533-6.771,5.355c-2.33,1.77-4.738,3.601-7.104,5.599c-2.055,1.737-4.084,3.502-6.112,5.268  c-2.387,2.078-4.855,4.226-7.293,6.253c-1.827,1.521-3.647,3.053-5.471,4.588c-2.647,2.229-5.384,4.533-8.092,6.753  c-2.743,2.25-5.52,4.48-8.31,6.721c-1.815,1.458-3.636,2.921-5.456,4.396l-3.513,2.848c-3.388,2.747-6.8,5.514-10.257,8.284  c-2.288,1.834-4.618,3.615-7.086,5.501c-2.224,1.699-4.524,3.457-6.811,5.271c-0.054,0.03-0.109,0.061-0.165,0.091  c-11.003,6.084-7.399,14.715-6.565,16.384c0.294,0.589,0.646,1.146,1.051,1.667c1.786,2.296,3.446,4.683,5.204,7.21  c1.487,2.139,3.025,4.35,4.676,6.549l0.442,0.589c3.293,4.39,6.699,8.928,10.745,13.48c0.131,0.146,0.265,0.289,0.403,0.428  c0.996,0.996,2.027,3.058,2.522,4.048c0.187,0.373,0.396,0.734,0.628,1.081c0.963,1.442,2.027,2.497,3.104,3.269  c0.52,0.949,1.231,2,2.229,2.999c0.174,0.174,0.354,0.34,0.538,0.499c0.401,0.48,0.822,0.901,1.253,1.27  c2.318,3.235,4.67,6.366,6.955,9.408l2.193,2.926c4.081,5.464,7.435,9.854,10.552,13.816c3.658,4.651,7.313,9.201,10.858,13.521  c2.23,2.719,4.522,5.343,6.739,7.881c1.52,1.74,3.037,3.477,4.524,5.234c1.621,1.916,3.186,3.873,4.841,5.945  c1.938,2.426,3.943,4.936,6.067,7.397c2.014,2.333,4.078,4.627,6.074,6.846c1.767,1.963,3.594,3.993,5.333,5.994  c1.889,2.173,3.826,4.299,5.701,6.354c1.993,2.186,3.876,4.251,5.726,6.389c1.653,1.912,3.338,3.809,5.029,5.712  c2.063,2.322,4.197,4.724,6.227,7.108c2.021,2.375,3.981,4.811,6.057,7.388c0.594,0.737,1.188,1.476,1.785,2.215  C144.638,503.624,143.738,503.58,142.831,503.554z"/></svg>