<?xml version="1.0" ?><svg id="Layer_1" style="enable-background:new 0 0 24 24;" version="1.1" viewBox="0 0 24 24" xml:space="preserve" xmlns="http://www.w3.org/2000/svg" xmlns:xlink="http://www.w3.org/1999/xlink"><style type="text/css">
	.st0{fill:#1E232D;}
</style><path class="st0" d="M22,5H6C4.9,5,4,5.9,4,7v12h2V7h16v13c0,0.6-0.4,1-1,1H3c-0.6,0-1-0.4-1-1V3h17V1H2C0.9,1,0,1.9,0,3v17  c0,1.7,1.3,3,3,3h18c1.7,0,3-1.3,3-3V7C24,5.9,23.1,5,22,5z M14,12l2.4,1.8l1.2-1.6l-4-3L12,10v5c-1.1,0-2,0.9-2,2c0,1.1,0.9,2,2,2  s2-0.9,2-2c0,0,0,0,0,0h0V12z"/></svg>